<svg xmlns="http://www.w3.org/2000/svg" id="Layer_2" data-name="Layer 2" viewBox="0 0 73.89 94.67"><defs><style>      .cls-1 {        fill: #fff;      }      .cls-2 {        fill: #bc1f58;      }      .cls-3 {        fill: #cd3d92;      }      .cls-4 {        fill: #0091a0;      }      .cls-5 {        fill: #a12272;      }      .cls-6 {        fill: #ffce06;      }      .cls-7 {        fill: none;      }      .cls-8 {        fill: #00aced;      }      .cls-9 {        fill: #2f308a;      }    </style></defs><g id="Layer_1-2" data-name="Layer 1"><g><path class="cls-1" d="M11.42,67.72s9.51,15.54,21.8,21.79c12.29,6.25,27.96-19.75,27.96-19.75,0,0,3.77-21.88,4.15-21.88s-7.45-25.53-7.45-25.53l-12.24-7.37-17.02,4.95L11.42,67.72Z"></path><g><path class="cls-7" d="M39.11,26.85c-.6-.58-1.3-1.13-2.15-1.63,.85,.5,1.55,1.05,2.13,1.64,0,0,.01,0,.02,0Z"></path><path class="cls-5" d="M49.3,75.18c-.95,.45-2.57,.49-4.65,.47-.73,0-1.42-.01-1.83,.03-.75,.08-1.42,.22-2.03,.5-.08,.04-.16,.08-.24,.13-.54,.29-1.04,.7-1.53,1.31-.65,.81-1.52,1.31-2.53,1.52-2.57,2.23-4.96,5.05-7.37,7.84,4.9,3.36,10.07,5.72,15.07,6.87,6.43-8.69,6.58-13.91,5.1-18.67Z"></path><path class="cls-3" d="M52.32,76.08c-1.01-.43-1.98-.74-2.91-.95-.03,.02-.07,.04-.1,.05,1.48,4.75,1.33,9.97-5.1,18.67,5.11,1.18,10.06,1.12,14.38-.4,1.03,1,2.64,1.26,3.96,.52,1.33-.74,1.97-2.24,1.66-3.66,3.27-2.67,5.72-6.54,7.35-11.15-6.35,.41-13.06-.43-19.23-3.09Z"></path><path class="cls-8" d="M23.01,19.42c-.33-1.78-.6-3.78-.8-6.04,0-.09,0-.17-.02-.25-.22,.09-.44,.18-.66,.28-.99-1.19-2.03-2.54-3.12-4.07C14.58,3.93,8.28,.96,6.65,.13,5.02-.69,1.72,2.37,.88,8.27c-.83,5.9,4.7,1.51,11.83,5.48,1.37,.76,2.61,1.59,3.74,2.43-.86,.56-1.69,1.16-2.49,1.78,2.17,.66,4.44,1.36,6.8,2.07,.83,.25,1.68,.5,2.54,.76-.09-.44-.19-.89-.28-1.37Z"></path><path class="cls-6" d="M73.82,61.52c-6.98-4.72-10.63,5.11-25.35,8.6,.12,.05,.25,.09,.38,.14,.51,.18,1.09,.39,1.6,.73,.61,.42,.92,.86,.97,1.35,.07,.75-.49,1.33-1.04,1.9-.16,.16-.33,.33-.48,.51-.13,.15-.31,.27-.51,.38,.94,.21,1.9,.52,2.91,.95,6.18,2.65,12.89,3.5,19.23,3.09,1.81-5.15,2.58-11.23,2.27-17.65Z"></path><path class="cls-6" d="M31.62,41.73c-.85-1.86-2-4.37-.48-6.62-2.32-2.91-6.06-5.93-7.85-14.32-.86-.25-1.7-.5-2.54-.76-2.36-.71-4.62-1.41-6.8-2.07-1.54,1.2-2.95,2.51-4.25,3.9C.3,31.99-2.7,46.89,2.61,60.07c.9,2.23,3.54,3.17,5.64,2.01l.11-.06c.75,1.49,1.56,3.03,2.44,4.62,.96,1.74,2,3.41,3.11,5.01,.07-.12,.13-.23,.21-.35,1.79-9.08,4.01-11.45,6.35-11.86,.73-1.64,2.41-1.67,3.79-1.69,1.19-.02,2.32-.03,3.05-.83,.55-.6,.6-.9,.57-1.03-.06-.35-.82-.72-1.55-1.08-1.98-.98-4.97-2.45-3.12-7.2,.78-2,2.9-2.02,4.77-2.05,2.32-.03,3.77-.17,4.28-1.92,.09-.31-.3-1.17-.65-1.92Z"></path><path class="cls-9" d="M66,34.08c-.57-1.04-1.14-2.03-1.7-3l.06-.03c2.1-1.16,2.71-3.9,1.3-5.85-5.47-7.54-13.46-12.44-22.15-14.21-6.98-1.42-14.4-.8-21.31,2.13,0,.09,0,.17,.02,.25,.2,2.26,.47,4.26,.8,6.04,.09,.47,.18,.92,.28,1.37,2.58,.76,5.28,1.52,8.13,2.26,2.28,.59,4.11,1.32,5.54,2.17,.85,.5,1.56,1.05,2.15,1.63,.11-.05,.21-.1,.25-.18,.18-.31-.08-1.07-.31-1.75-.13-.38-.26-.78-.35-1.15-.28-1.32,.36-2.49,1.1-2.93,.54-.33,1.15-.29,1.62,.11,.59,.5,1.17,.73,1.53,.59,.3-.11,.41-.47,.45-.75,.1-.69,.66-1.4,1.5-1.88,.96-.56,2.02-.7,2.84-.38,.93,.36,1.51,.85,1.79,1.49,.41,.95,0,1.96-.36,2.84-.54,1.33-.54,1.63,.04,1.91,1.24,.61,1.77,.59,2.25,.57,.7-.02,1.21,.03,2.21,.93,.6,.54,.91,1.14,.92,1.78,.03,1.28-1.09,2.4-2.18,3.48-.86,.85-1.75,1.74-1.71,2.4,.02,.27,.21,.53,.58,.81,.41,.3,1.19,.21,1.94,.12,1.23-.14,2.76-.32,3.35,1.22,.85,2.24,.08,3.74-.88,4.92,4.44-1.38,9.42-.94,13.37-.5-.9-2.18-1.92-4.34-3.08-6.43Z"></path><path class="cls-8" d="M55.71,41.01c-.26,.32-.52,.62-.78,.9-.73,.8-1.36,1.48-1.33,2.26,.04,.88,1.24,1.16,2.93,1.45,1.5,.26,2.92,.5,3.17,1.66,.65,2.96-1.99,4.23-4.12,5.25-2.04,.98-3.27,1.66-3.2,2.92,.04,.68,1.14,.78,2.06,.73,.13,0,.2,0,.29,.01,.11,.03,.26,.03,.45,.05,1.17,.1,4.26,.35,4.14,4.31-.07,1.47-.8,2.67-2.17,3.57-2.02,1.33-4.97,1.62-5.31,1.49-.3-.11-1.93,.12-3.3,.86-.71,.39-1.16,.81-1.25,1.2-.4,1.69,.14,2.07,1.18,2.45,14.72-3.49,18.37-13.32,25.35-8.6-.33-6.86-1.9-14.11-4.74-21.01-3.95-.44-8.93-.88-13.37,.5Z"></path><path class="cls-2" d="M36.96,25.21c-1.45-.86-3.28-1.58-5.54-2.17-2.85-.73-5.54-1.5-8.13-2.26,1.79,8.39,5.53,11.41,7.85,14.32,.06-.08,.11-.17,.17-.25,.02-.02,.04-.03,.05-.06,.81-.98,1.93-.55,2.75-.23,.81,.32,1.22,.43,1.5,.13,.28-.29-.42-1.38-.99-2.25-1.15-1.78-2.71-4.22-.89-6.22,1.01-1.1,2-.45,2.73,.02,.68,.44,1.39,.9,2.4,.69,.09-.02,.15-.05,.22-.07-.58-.59-1.28-1.14-2.13-1.64Z"></path><path class="cls-2" d="M31.42,23.05c2.27,.58,4.1,1.31,5.54,2.17-1.43-.85-3.27-1.58-5.54-2.17Z"></path><path class="cls-4" d="M36.5,79.14c-.86,.17-1.83,.13-2.89-.16-.66-.18-1.15-.82-1.72-1.56-.65-.85-1.4-1.82-2.36-1.9-.75-.06-1.66,.42-2.7,1.41-1.51,1.43-3.49,3.01-4.93,4.12,2.31,2.22,4.74,4.22,7.24,5.93,2.41-2.79,4.79-5.61,7.37-7.84Z"></path><path class="cls-4" d="M26.12,72.21c-.96-1.18-2.49-.94-3.84-.73-1.13,.18-2.19,.34-2.72-.46-1.02-1.57,.42-3.18,1.81-4.74,1.08-1.2,.97-1.51,.4-2.05-.06-.06-.12-.11-.19-.18-.73-.66-1.82-1.65-1.34-3.87,.06-.29,.15-.53,.24-.75-2.35,.42-4.56,2.78-6.35,11.86-.03,.14-.14,.23-.21,.35,1.59,2.32,3.32,4.49,5.16,6.51,.64-.25,1.27-.49,1.88-.73,1.26-.49,2.39-1.22,3.25-2.12,1.7-1.75,2.06-2.93,1.92-3.1Z"></path><path class="cls-1" d="M49.3,75.18s.07-.03,.1-.05c-.04,0-.09-.03-.13-.04,0,.03,.02,.06,.03,.09Z"></path><path class="cls-1" d="M40.79,76.19c-.08,.04-.16,.08-.24,.13,.08-.04,.16-.09,.24-.13Z"></path></g></g></g></svg>